PathFileType	4	(X/Y/Z)	C:/Users/beibeiliu/ov580/test_trc\sequence.26_training_dense_left.trc
DataRate	CameraRate	NumFrames	NumMarkers	Units	OrigDataRate	OrigDataStartFrame	OrigNumFrames
120	120	16	19	mm	120	101	400
Frame#	Time	ThumbCMC			ThumbMCP			ThumbIP			ThumbTip			IndexMCP			IndexPIP			IndexTip			MiddleMCP			MiddlePIP			MiddleTip			RingMCP			RingPIP			RingTip			PinkyMCP			PinkyPIP			PinkyTip			BackHand1			BackHand2			BackHand3	
		X0	Y0	Z0	X1	Y1	Z1	X2	Y2	Z2	X3	Y3	Z3	X4	Y4	Z4	X5	Y5	Z5	X6	Y6	Z6	X7	Y7	Z7	X8	Y8	Z8	X9	Y9	Z9	X10	Y10	Z10	X11	Y11	Z11	X12	Y12	Z12	X13	Y13	Z13	X14	Y14	Z14	X15	Y15	Z15	X16	Y16	Z16	X17	Y17	Z17	X18	Y18	Z18	
100	0.833333	-188.713	33.7592	40.62	-162.072	25.0075	27.5436	-144.659	24.6807	17.1702	-127.599	21.7548	7.74095	-151.072	55.5875	-10.8148	-164.969	39.1574	-27.5188	-185.004	33.3221	-1.67277	-167.352	64.2336	-24.1167	-182.724	42.2859	-30.2064	-192.055	38.5915	2.40628	-177.038	77.9608	-24.0414	-185.974	54.8813	-34.0338	-200.076	46.5888	-8.22004	-191.59	99.8343	-14.0846	-179.379	103.687	-27.1381	-170.186	112.624	-41.3288	-194.155	86.5042	23.2095	-211.922	74.466	44.0371	-184.114	62.2477	42.0581	
101	0.841667	-182.034	31.1173	39.636	-165.225	22.3642	26.6044	-144.96	20.9422	16.0714	-127.464	15.5057	7.84653	-147.048	47.7876	-10.851	-161.496	32.0268	-26.4049	-183.529	30.8042	-0.397873	-162.046	59.5602	-19.4111	-183.147	37.8979	-27.4211	-193.031	38.8532	0.867609	-170.428	71.926	-24.9933	-186.812	49.3443	-33.1814	-197.27	44.1302	-8.97892	-183.162	95.8553	-13.6991	-171.484	97.5889	-26.354	-161.466	107.803	-43.3088	-187.46	82.8677	24.6214	-204.995	76.0632	39.8144	-176.587	60.2712	42.0511	
102	0.85	-180.717	26.9354	40.9122	-160.601	16.0961	28.1341	-144.163	12.7184	17.5343	-126.749	6.72241	8.35723	-143.093	38.8427	-12.684	-161.743	24.7805	-25.4546	-181.09	25.8529	-3.47019	-159	54.1442	-22.3143	-177.028	31.2955	-28.0717	-189.879	34.6262	1.67258	-167.996	68.709	-24.9566	-181.492	45.066	-32.0993	-195.872	42.5636	-8.5298	-175.917	89.2361	-12.0981	-162.297	92.902	-28.7513	-154.342	102.585	-43.9816	-181.913	80.1638	23.1277	-197.625	71.8334	41.6061	-174.746	58.4173	41.3819	
103	0.858333	-182.538	26.172	38.8495	-163.829	13.0095	28.4582	-144.174	4.4784	19.3702	-126.737	-1.45478	10.54	-142.387	35.9446	-11.7349	-162.675	21.8855	-25.7229	-179.507	22.0985	-0.0974955	-155.001	48.6432	-20.9244	-178.046	30.3485	-27.8944	-188.087	30.7491	-0.770209	-161.154	62.0608	-24.0018	-176.927	42.6092	-32.8249	-191.957	40.7025	-7.3586	-168.231	86.9206	-13.2535	-155.926	88.1893	-28.9072	-144.839	96.5682	-43.5611	-176.887	75.7372	22.4786	-193.754	70.6503	41.1561	-172.84	54.2978	40.8438	
104	0.866667	-183.868	22.4433	40.2594	-162.458	9.75431	27.4268	-143.754	-0.50209	18.9557	-124.85	-7.4199	10.336	-141.036	29.4489	-11.927	-164.085	19.0982	-25.7509	-180.261	22.3603	0.10885	-153.853	45.8381	-21.3752	-175.683	28.1391	-29.8503	-185.1	30.145	2.80004	-158.853	58.8124	-27.6216	-174.098	41.0863	-34.6086	-189.047	37.4759	-8.44419	-166.237	82.0243	-11.3773	-152.806	83.6495	-27.9462	-142.955	91.9857	-42.3454	-172.509	74.6094	23.5647	-194.203	71.7823	44.3744	-171.97	46.7647	42.339	
105	0.875	-180.303	20.7081	38.3248	-164.347	4.43733	27.1766	-144.364	-1.35048	16.5583	-132.537	-11.7116	10.6921	-141.059	22.1506	-11.9854	-161.7	16.2625	-28.0637	-180.188	16.3132	0.069369	-149.961	37.302	-20.552	-173.866	24.5518	-31.4528	-185.729	25.6752	0.171743	-156.138	56.2375	-22.5907	-174.743	35.6758	-33.8529	-189.152	36.0093	-7.46885	-162.649	80.7445	-14.8633	-150.893	81.1878	-28.7682	-138.495	81.4974	-42.2206	-169.069	66.2047	24.6659	-189.247	65.5846	44.4017	-168.094	46.4851	37.7894	
106	0.883333	-180.724	13.2161	39.5242	-166.478	-2.84332	27.6135	-145.535	-8.14004	14.9741	-128.855	-17.0705	5.19198	-142.765	17.6761	-16.9687	-165.224	10.0492	-28.7846	-180.797	13.9276	-3.03168	-151.705	34.3007	-25.8695	-175.494	22.6566	-31.9286	-186.691	27.5375	-0.186224	-155.346	51.8782	-24.4884	-175.295	37.707	-36.6272	-190.37	35.4167	-13.2783	-156.742	74.4547	-17.3579	-149.877	78.6018	-31.8465	-136.62	79.9549	-49.5659	-167.386	65.3387	20.6784	-188.36	63.4769	43.1246	-167.988	38.898	40.2129	
107	0.891667	-182.947	12.682	37.5839	-163.073	-3.85165	23.7017	-148.882	-11.1495	12.9341	-132.661	-22.1965	3.59794	-142.775	13.3583	-15.5158	-166.81	7.75678	-30.7674	-182.034	13.2508	-4.80102	-153.462	30.8965	-27.4051	-179.079	19.4035	-31.6993	-188.072	24.6189	-4.37021	-156.841	48.8373	-28.4464	-177.41	36.7001	-39.5288	-189.926	31.2004	-12.5239	-156.578	71.7243	-17.3219	-148.944	70.8612	-32.1578	-136.881	71.2352	-49.0597	-166.208	63.4026	20.298	-186.077	60.7369	41.9505	-164.803	37.1567	39.3908	
108	0.9	-182.452	9.63481	37.7718	-166.307	-5.55984	22.6061	-150.522	-17.4278	11.9617	-139.344	-27.0314	1.59947	-144.572	8.42349	-18.0426	-169.28	3.58892	-31.898	-182.807	6.60879	-2.45473	-153.386	24.0359	-28.6012	-181.969	16.483	-31.4151	-186.652	19.8019	-1.58164	-157.192	43.5638	-32.7266	-178.241	32.6623	-39.9136	-190.159	30.2872	-12.6108	-155.651	67.6711	-19.3279	-146.034	68.2233	-36.5548	-134.963	65.583	-47.9008	-163.041	56.9275	20.4734	-180.2	57.4574	41.0152	-164.471	33.7435	35.2256	
109	0.908333	-180.092	7.34641	35.351	-168.005	-13.9434	24.232	-154.098	-21.4404	9.60219	-139.696	-33.0561	-1.73524	-147.659	5.56207	-21.3365	-168.991	0.148062	-32.9588	-185.039	3.59998	-7.78103	-152.793	22.3117	-25.6654	-182.158	13.5493	-33.7782	-188.76	20.6195	-5.09974	-155.427	39.0282	-31.3698	-179.9	27.5394	-37.6796	-191.489	28.8692	-15.5504	-152.547	64.7881	-20.5424	-142.498	59.8874	-35.9007	-132.86	62.9776	-51.1424	-163.654	54.2863	20.8039	-178.485	54.5649	42.8298	-164.094	29.2287	38.2262	
110	0.916667	-182.955	2.28684	37.5017	-167.681	-18.1144	20.7674	-154.621	-25.6455	6.48983	-142.866	-34.712	-4.51852	-148.186	0.973407	-21.5739	-173.916	0.541249	-32.5706	-186.987	2.85308	-8.3845	-154.702	17.0863	-29.3747	-183.517	13.9019	-34.1826	-186.476	16.9068	-0.300771	-154.584	34.4699	-31.0825	-178.508	25.8336	-39.2133	-191.353	27.8829	-13.753	-150.939	58.6274	-19.1971	-142.583	57.3425	-35.613	-133.393	56.6914	-51.2261	-160.868	51.0656	19.8372	-176.132	52.6483	41.8362	-161.805	24.1206	37.6463	
111	0.925	-180.328	0.582201	35.4703	-173.03	-17.0622	20.6324	-158.357	-28.6419	6.65222	-148.848	-41.6875	-3.34781	-149.574	-2.77741	-23.5037	-174.214	-2.12171	-35.2474	-185.25	3.66783	-6.13539	-155.087	13.3463	-31.1049	-183.361	13.3243	-35.168	-187.253	17.1053	-1.41533	-156.471	34.2211	-32.7603	-180.843	26.417	-39.5269	-190.688	26.4212	-13.1416	-151.518	59.3648	-17.6504	-142.322	58.651	-34.4051	-130.246	59.1772	-54.8353	-154.343	44.2538	16.0039	-171.288	46.9306	41.2743	-160.91	23.7033	35.4897	
112	0.933333	-178.993	-3.74366	36.625	-169.453	-21.0722	18.023	-157.694	-30.9869	3.80664	-149.204	-45.8014	-6.70754	-149.732	-5.55791	-24.8708	-177.677	-6.43792	-33.6804	-183.931	1.51523	-3.75838	-154.883	17.2454	-30.411	-183.522	9.02744	-35.6602	-189.061	13.1292	-3.7965	-156.881	31.3902	-34.8338	-181.096	24.6363	-38.5508	-188.884	23.2851	-11.7544	-147.08	55.3959	-22.3277	-141.677	53.6079	-35.2811	-131.433	55.0626	-55.7905	-153.815	43.9928	17.9358	-165.541	43.8433	39.2191	-154.796	19.1243	33.4724	
113	0.941667	-174.085	-6.66756	33.3724	-169.565	-21.7181	18.2713	-157.852	-34.9747	1.67442	-149.13	-48.2148	-9.72689	-150.301	-6.25313	-26.0889	-179.056	-4.50092	-33.9276	-183.543	0.0681876	-4.05563	-158.42	15.3897	-35.1628	-184.483	8.97845	-34.9997	-184.198	14.0143	1.00444	-156.63	28.7956	-36.2467	-180.383	22.6326	-36.9062	-187.345	24.5615	-6.99701	-146.556	54.2837	-20.8193	-138.692	55.7634	-40.3653	-130.184	56.9581	-58.2699	-147.426	37.0286	15.6556	-161.022	44.7585	40.0444	-153.764	15.2406	33.719	
114	0.95	-173.748	-3.62336	35.0969	-164.648	-22.7192	13.5817	-154.403	-34.4077	-2.29281	-149.871	-45.0148	-13.2733	-149.531	-7.69172	-28.8283	-178.08	-5.31098	-34.4147	-183.88	2.3373	-8.18379	-155.381	10.5435	-32.7742	-186.329	11.5417	-30.5789	-186.919	10.7114	-2.53855	-156.85	30.7786	-37.8962	-179.742	23.9358	-37.1085	-186.451	22.5268	-9.3002	-145.289	51.2805	-19.6033	-138.896	51.2751	-38.6581	-132.384	56.5663	-56.91	-147.796	39.069	17.1375	-155.972	43.3337	36.6976	-149.291	16.6699	32.8805	
115	0.958333	-167.925	-2.77667	32.1025	-164.772	-19.743	15.422	-152.937	-34.7372	-4.02115	-147.105	-44.2004	-15.2657	-147.276	-6.84671	-29.0751	-177.232	-4.36502	-34.7882	-182.289	-0.865758	-7.98799	-154.556	15.6152	-34.9005	-184.704	15.0324	-30.3258	-183.198	12.2345	-2.55526	-152.577	29.8904	-33.6398	-181.885	23.5107	-33.7209	-182.018	22.8751	-7.81326	-141.398	54.7706	-23.6962	-139.198	56.9483	-40.022	-131.068	55.4168	-60.0377	-142.804	39.8605	14.0907	-151.734	41.0251	38.4684	-145.831	12.0194	30.3732	
